<?xml version="1.0" encoding="UTF-8" standalone="no"?>
<!-- Created with Inkscape (http://www.inkscape.org/) -->

<svg
   width="300"
   height="300"
   viewBox="0 0 300 300"
   version="1.1"
   id="svg1"
   inkscape:version="1.3 (0e150ed6c4, 2023-07-21)"
   sodipodi:docname="Nugentry-Logo.svg"
   inkscape:dataloss="true"
   xmlns:inkscape="http://www.inkscape.org/namespaces/inkscape"
   xmlns:sodipodi="http://sodipodi.sourceforge.net/DTD/sodipodi-0.dtd"
   xmlns="http://www.w3.org/2000/svg"
   xmlns:svg="http://www.w3.org/2000/svg">
  <sodipodi:namedview
     id="namedview1"
     pagecolor="#ffffff"
     bordercolor="#000000"
     borderopacity="0.25"
     inkscape:showpageshadow="2"
     inkscape:pageopacity="0.0"
     inkscape:pagecheckerboard="0"
     inkscape:deskcolor="#d1d1d1"
     inkscape:document-units="px"
     inkscape:zoom="1.8314066"
     inkscape:cx="206.39874"
     inkscape:cy="147.70068"
     inkscape:window-width="1920"
     inkscape:window-height="991"
     inkscape:window-x="-9"
     inkscape:window-y="-9"
     inkscape:window-maximized="1"
     inkscape:current-layer="layer1" />
  <defs
     id="defs1">
    <linearGradient
       x1="0"
       y1="0"
       x2="1"
       y2="0"
       gradientUnits="userSpaceOnUse"
       gradientTransform="matrix(0,-200.77494,189.0081,0,436.34513,343.69408)"
       spreadMethod="pad"
       id="linearGradient2">
      <stop
         style="stop-opacity:1;stop-color:#009dfa icc-color(sRGB-IEC61966-2.1, 0, 0.61567688, 0.9803772);"
         offset="0"
         id="stop1" />
      <stop
         style="stop-opacity:1;stop-color:#00cefd icc-color(sRGB-IEC61966-2.1, 0, 0.80783081, 0.99215698);"
         offset="1"
         id="stop2" />
    </linearGradient>
    <linearGradient
       x1="0"
       y1="0"
       x2="1"
       y2="0"
       gradientUnits="userSpaceOnUse"
       gradientTransform="matrix(0,239.15731,-225.14099,0,373.38057,84.498296)"
       spreadMethod="pad"
       id="linearGradient4">
      <stop
         style="stop-opacity:1;stop-color:#ff4100 icc-color(sRGB-IEC61966-2.1, 1, 0.25489807, 0);"
         offset="0"
         id="stop3" />
      <stop
         style="stop-opacity:1;stop-color:#ff6b00 icc-color(sRGB-IEC61966-2.1, 1, 0.41960144, 0);"
         offset="1"
         id="stop4" />
    </linearGradient>
    <linearGradient
       x1="0"
       y1="0"
       x2="1"
       y2="0"
       gradientUnits="userSpaceOnUse"
       gradientTransform="matrix(0,239.15731,-225.14099,0,356.16035,84.498294)"
       spreadMethod="pad"
       id="linearGradient6">
      <stop
         style="stop-opacity:1;stop-color:#ff4100 icc-color(sRGB-IEC61966-2.1, 1, 0.25489807, 0);"
         offset="0"
         id="stop5" />
      <stop
         style="stop-opacity:1;stop-color:#ff6b00 icc-color(sRGB-IEC61966-2.1, 1, 0.41960144, 0);"
         offset="1"
         id="stop6" />
    </linearGradient>
    <clipPath
       clipPathUnits="userSpaceOnUse"
       id="clipPath11">
      <path
         d="m 227.502,166.699 c 0,-1.463 32.458,-2.649 72.499,-2.649 v 0 c 40.038,0 72.497,1.186 72.497,2.649 v 0 c 0,1.464 -32.459,2.65 -72.497,2.65 v 0 c -40.041,0 -72.499,-1.186 -72.499,-2.65"
         transform="matrix(1.3333333,0,0,-1.3333333,0,533.33333)"
         id="path11" />
    </clipPath>
    <mask
       maskUnits="userSpaceOnUse"
       x="0"
       y="0"
       width="1"
       height="1"
       id="mask6">
      <path
         id="path8"
         d="M -32768,32767 H 32767 V -32768 H -32768 Z"
         style="fill:url(#radialGradient8);stroke:none" />
    </mask>
    <radialGradient
       fx="0"
       fy="0"
       cx="0"
       cy="0"
       r="1"
       gradientUnits="userSpaceOnUse"
       gradientTransform="matrix(51.298134,0,0,-1.9136558,300,166.69965)"
       spreadMethod="pad"
       id="radialGradient8">
      <stop
         style="stop-opacity:0.29999237;stop-color:#ffffff"
         offset="0"
         id="stop7" />
      <stop
         style="stop-opacity:0;stop-color:#ffffff"
         offset="1"
         id="stop8" />
    </radialGradient>
    <radialGradient
       fx="0"
       fy="0"
       cx="0"
       cy="0"
       r="1"
       gradientUnits="userSpaceOnUse"
       gradientTransform="matrix(51.298134,0,0,-1.9136558,300,166.69965)"
       spreadMethod="pad"
       id="radialGradient10">
      <stop
         style="stop-opacity:1;stop-color:#231f20 icc-color(sRGB-IEC61966-2.1, 0.13725281, 0.12156677, 0.12548828);"
         offset="0"
         id="stop9" />
      <stop
         style="stop-opacity:1;stop-color:#ffffff icc-color(sRGB-IEC61966-2.1, 1, 1, 1);"
         offset="1"
         id="stop10" />
    </radialGradient>
    <clipPath
       clipPathUnits="userSpaceOnUse"
       id="clipPath13">
      <path
         d="M 0,400 H 600 V 0 H 0 Z"
         transform="translate(-211.0003,-139.6982)"
         id="path13" />
    </clipPath>
    <clipPath
       clipPathUnits="userSpaceOnUse"
       id="clipPath15">
      <path
         d="M 0,400 H 600 V 0 H 0 Z"
         transform="translate(-247.87431,-145.80661)"
         id="path15" />
    </clipPath>
    <clipPath
       clipPathUnits="userSpaceOnUse"
       id="clipPath17">
      <path
         d="M 0,400 H 600 V 0 H 0 Z"
         transform="translate(-260.98561,-152.0762)"
         id="path17" />
    </clipPath>
    <clipPath
       clipPathUnits="userSpaceOnUse"
       id="clipPath19">
      <path
         d="M 0,400 H 600 V 0 H 0 Z"
         transform="translate(-287.52661,-152.0762)"
         id="path19" />
    </clipPath>
    <clipPath
       clipPathUnits="userSpaceOnUse"
       id="clipPath21">
      <path
         d="M 0,400 H 600 V 0 H 0 Z"
         transform="translate(-301.27961,-141.55471)"
         id="path21" />
    </clipPath>
    <clipPath
       clipPathUnits="userSpaceOnUse"
       id="clipPath23">
      <path
         d="M 0,400 H 600 V 0 H 0 Z"
         transform="translate(-322.06571,-139.54)"
         id="path23" />
    </clipPath>
    <clipPath
       clipPathUnits="userSpaceOnUse"
       id="clipPath25">
      <path
         d="M 0,400 H 600 V 0 H 0 Z"
         transform="translate(-340.23071,-145.80661)"
         id="path25" />
    </clipPath>
    <clipPath
       clipPathUnits="userSpaceOnUse"
       id="clipPath27">
      <path
         d="M 0,400 H 600 V 0 H 0 Z"
         transform="translate(-347.26791,-145.80661)"
         id="path27" />
    </clipPath>
  </defs>
  <g
     inkscape:label="Layer 1"
     inkscape:groupmode="layer"
     id="layer1">
    <g
       id="g2"
       transform="matrix(0.61156108,0,0,0.61156108,-88.263014,-10.942577)">
      <path
         id="path2"
         d="m 483.57342,192.22869 -0.0555,0.0536 -63.40487,-66.71991 -21.44855,23.05177 63.40487,66.72258 -94.65458,100.27946 21.70076,22.84011 94.65711,-100.27946 21.44855,-23.05444 0.053,-0.0536 z"
         style="fill:url(#linearGradient2);stroke:none;stroke-width:2.5995" />
      <path
         id="path4"
         d="m 361.58102,232.90685 -21.59484,-22.89905 44.7055,-47.14037 22.08413,23.38398 z"
         style="fill:url(#linearGradient4);stroke:none;stroke-width:2.5995" />
      <path
         id="path6"
         d="m 439.06465,220.50487 -21.59735,-22.89637 -24.13214,25.24066 -35.58028,36.47452 0.23708,-0.26256 -41.29551,-43.98697 94.01395,-99.85883 -21.58222,-22.909763 -115.87362,123.074023 21.58475,22.90977 0.058,-0.0616 41.40649,43.71637 21.46116,23.16965 21.44603,-22.63113 -0.0555,-0.0589 35.77448,-36.67546 z"
         style="fill:url(#linearGradient6);stroke:none;stroke-width:2.5995" />
    </g>
    <g
       id="g3"
       transform="matrix(0.61156108,0,0,0.61156108,-86.230111,-2.5253924)">
      <g
         mask="url(#mask6)"
         id="g10"
         clip-path="url(#clipPath11)"
         transform="matrix(1.8916289,0,0,2.0093937,-354.76776,-267.15355)">
        <path
           d="m 227.502,166.699 c 0,-1.463 32.458,-2.649 72.499,-2.649 v 0 c 40.038,0 72.497,1.186 72.497,2.649 v 0 c 0,1.464 -32.459,2.65 -72.497,2.65 v 0 c -40.041,0 -72.499,-1.186 -72.499,-2.65"
           transform="matrix(1.3333333,0,0,-1.3333333,0,533.33333)"
           style="fill:url(#radialGradient10);stroke:none"
           id="path10" />
      </g>
      <path
         id="path12"
         d="m 0,0 4.412,2.559 c 0.8,-1.854 2.175,-3.103 4.701,-3.103 2.432,0 3.039,0.961 3.039,1.823 0,1.377 -1.279,1.919 -4.637,2.847 -3.327,0.928 -6.589,2.526 -6.589,6.812 0,4.318 3.646,6.813 7.516,6.813 3.678,0 6.555,-1.761 8.188,-5.054 l -4.317,-2.526 c -0.768,1.599 -1.824,2.589 -3.871,2.589 -1.599,0 -2.399,-0.798 -2.399,-1.694 0,-1.023 0.544,-1.727 4.03,-2.782 3.389,-1.023 7.197,-2.207 7.197,-6.939 0,-4.318 -3.455,-6.876 -8.316,-6.876 C 4.252,-5.531 1.246,-3.293 0,0"
         style="fill:#231f20 icc-color(sRGB-IEC61966-2, 0.1, 0.13699341, 0.12199402, 0.125);fill-opacity:1;fill-rule:nonzero;stroke:none"
         transform="matrix(2.5221718,0,0,-2.6791915,187.14433,406.15883)"
         clip-path="url(#clipPath13)" />
      <path
         id="path14"
         d="m 0,0 c 0,3.998 -2.879,6.651 -6.526,6.651 -3.645,0 -6.523,-2.653 -6.523,-6.651 0,-3.996 2.878,-6.652 6.523,-6.652 C -2.879,-6.652 0,-3.996 0,0 m -18.165,0 c 0,6.589 5.212,11.643 11.639,11.643 6.428,0 11.642,-5.054 11.642,-11.643 0,-6.587 -5.214,-11.64 -11.642,-11.64 -6.427,0 -11.639,5.053 -11.639,11.64"
         style="fill:#231f20 icc-color(sRGB-IEC61966-2, 0.1, 0.13699341, 0.12199402, 0.125);fill-opacity:1;fill-rule:nonzero;stroke:none"
         transform="matrix(2.5221718,0,0,-2.6791915,280.14691,389.79324)"
         clip-path="url(#clipPath15)" />
      <path
         id="path16"
         d="M 0,0 V -4.318 H 8.314 V -9.242 H 0 v -8.22 H -5.117 V 4.925 H 8.475 V 0 Z"
         style="fill:#231f20 icc-color(sRGB-IEC61966-2, 0.1, 0.13699341, 0.12199402, 0.125);fill-opacity:1;fill-rule:nonzero;stroke:none"
         transform="matrix(2.5221718,0,0,-2.6791915,313.21585,372.99579)"
         clip-path="url(#clipPath17)" />
      <path
         id="path18"
         d="m 0,0 h -5.755 v -17.462 h -5.117 V 0 H -16.63 V 4.925 H 0 Z"
         style="fill:#231f20 icc-color(sRGB-IEC61966-2, 0.1, 0.13699341, 0.12199402, 0.125);fill-opacity:1;fill-rule:nonzero;stroke:none"
         transform="matrix(2.5221718,0,0,-2.6791915,380.15681,372.99579)"
         clip-path="url(#clipPath19)" />
      <path
         id="path20"
         d="M 0,0 C 0,1.246 -0.831,2.142 -2.11,2.142 H -6.396 V -2.145 H -2.11 C -0.831,-2.145 0,-1.247 0,0 M -6.396,10.647 V 6.684 h 3.644 c 1.153,0 1.952,0.831 1.952,1.982 0,1.151 -0.767,1.981 -1.952,1.981 z M 5.116,-0.384 c 0,-3.966 -3.23,-6.556 -7.226,-6.556 h -9.404 v 22.386 h 8.762 C 1.151,15.446 4.316,12.92 4.316,9.05 4.316,7.195 3.581,5.724 2.365,4.668 4.03,3.614 5.116,1.886 5.116,-0.384"
         style="fill:#231f20 icc-color(sRGB-IEC61966-2, 0.1, 0.13699341, 0.12199402, 0.125);fill-opacity:1;fill-rule:nonzero;stroke:none"
         transform="matrix(2.5221718,0,0,-2.6791915,414.84424,401.1849)"
         clip-path="url(#clipPath21)" />
      <path
         id="path22"
         d="m 0,0 v -4.926 h -13.111 v 22.387 h 5.117 L -7.994,0 Z"
         style="fill:#231f20 icc-color(sRGB-IEC61966-2, 0.1, 0.13699341, 0.12199402, 0.125);fill-opacity:1;fill-rule:nonzero;stroke:none"
         transform="matrix(2.5221718,0,0,-2.6791915,467.27035,406.58267)"
         clip-path="url(#clipPath23)" />
      <path
         id="path24"
         d="m 0,0 c 0,3.998 -2.877,6.651 -6.522,6.651 -3.647,0 -6.526,-2.653 -6.526,-6.651 0,-3.996 2.879,-6.652 6.526,-6.652 C -2.877,-6.652 0,-3.996 0,0 m -18.165,0 c 0,6.589 5.214,11.643 11.643,11.643 6.426,0 11.639,-5.054 11.639,-11.643 0,-6.587 -5.213,-11.64 -11.639,-11.64 -6.429,0 -11.643,5.053 -11.643,11.64"
         style="fill:#231f20 icc-color(sRGB-IEC61966-2, 0.1, 0.13699341, 0.12199402, 0.125);fill-opacity:1;fill-rule:nonzero;stroke:none"
         transform="matrix(2.5221718,0,0,-2.6791915,513.0856,389.79324)"
         clip-path="url(#clipPath25)" />
      <path
         id="path26"
         d="m 0,0 c 0,6.589 4.893,11.643 11.64,11.643 4.062,0 7.644,-2.017 9.595,-5.182 L 16.821,3.902 C 15.83,5.629 13.911,6.651 11.64,6.651 7.676,6.651 5.117,3.998 5.117,0 c 0,-3.996 2.559,-6.652 6.523,-6.652 2.271,0 4.222,1.023 5.181,2.751 l 4.414,-2.558 C 19.315,-9.625 15.733,-11.64 11.64,-11.64 4.893,-11.64 0,-6.587 0,0"
         style="fill:#231f20 icc-color(sRGB-IEC61966-2, 0.1, 0.13699341, 0.12199402, 0.125);fill-opacity:1;fill-rule:nonzero;stroke:none"
         transform="matrix(2.5221718,0,0,-2.6791915,530.83464,389.79324)"
         clip-path="url(#clipPath27)" />
    </g>
  </g>
</svg>
